# xmcd CD database file
#
# Track frame offsets:
#	150
#	14417
#	32576
#	46860
#	61191
#	76552
#	91396
#	103911
#	117669
#	133074
#	148845
#	163406
#	181611
#	196249
#	210491
#	222470
#	236487
#	250094
#	265320
#	278952
#	293449
#	306108
#	320582
#
# Disc length: 4412 seconds
#
# Revision: 0
# Processed by: cddbd v1.5.2PL0 Copyright (c) Steve Scherf et al.
# Submitted via: CDex 1.70beta3
#
DISCID=4e113a17
DTITLE=Benny Goodman - The Chronological Benny Goodman and His Orchestra, 1948-1949
DYEAR=2006
DGENRE=Jazz
TTITLE0=Stealin' Apples
TTITLE1=Undercurrent Blues
TTITLE2=Undercurrent Blues
TTITLE3=Ma Belle Marguerite
TTITLE4=Shishkabop
TTITLE5=Having A Wonderful Wish
TTITLE6=That Wonderful Girl Of Mine
TTITLE7=It Isnt' Fair
TTITLE8=Fresh Fish
TTITLE9=The Huckle buck
TTITLE10=Trees
TTITLE11=Don't Worry 'Bout Me
TTITLE12=Bop Hop
TTITLE13=Trees
TTITLE14=Dreazag
TTITLE15=Bedlam
TTITLE16=There's A Small Hotel
TTITLE17=Oo-Bla-Dee
TTITLE18=Blue Lou
TTITLE19=Fiesta Time
TTITLE20=Egghead
TTITLE21=Little Girl Don't Cry
TTITLE22=Why Don't We Do This More Often?
EXTD=YEAR: 2006
EXTT0=
EXTT1=
EXTT2=
EXTT3=
EXTT4=
EXTT5=
EXTT6=
EXTT7=
EXTT8=
EXTT9=
EXTT10=
EXTT11=
EXTT12=
EXTT13=
EXTT14=
EXTT15=
EXTT16=
EXTT17=
EXTT18=
EXTT19=
EXTT20=
EXTT21=
EXTT22=
PLAYORDER=
